<?xml version="1.0" encoding="UTF-8" standalone="no"?>
<svg xmlns:xlink="http://www.w3.org/1999/xlink" height="61.35px" width="555.85px" xmlns="http://www.w3.org/2000/svg">
  <g transform="matrix(1, 0, 0, 1, 277.9, 24.15)">
    <path d="M277.95 13.75 L-277.9 13.75 -277.9 -24.15 277.95 -24.15 277.95 13.75" fill="url(#gradient0)" fill-rule="evenodd" stroke="none"/>
    <path d="M8.5 -2.4 Q12.55 0.5 14.65 5.6 16.75 10.6 16.75 15.95 16.75 21.0 14.65 25.9 12.55 30.6 8.55 33.45 4.45 36.2 0.05 36.2 -4.4 36.2 -8.4 33.45 -12.45 30.7 -14.5 25.9 -16.65 21.1 -16.65 15.9 -16.65 10.65 -14.5 5.5 -12.4 0.35 -8.35 -2.5 -4.35 -5.45 0.05 -5.45 4.4 -5.45 8.5 -2.4 M8.0 8.15 Q5.0 3.35 0.05 3.35 -4.35 3.35 -7.25 7.25 -10.25 11.0 -10.2 16.05 -10.25 20.2 -7.25 23.8 -4.25 27.35 0.05 27.4 4.3 27.35 7.35 23.8 10.3 20.2 10.3 16.05 10.3 11.75 8.0 8.15" fill="#00ffff" fill-rule="evenodd" stroke="none"/>
    <path d="M69.0 -1.9 L68.5 13.45 63.8 12.0 Q60.5 1.05 51.7 7.3 40.15 15.2 50.4 24.15 59.25 31.65 67.7 23.5 L71.25 26.15 Q71.7 31.75 67.5 34.35 56.3 40.75 46.05 32.4 34.85 23.4 41.2 7.5 47.25 -7.5 60.05 -3.85 L69.0 -1.9 M-107.4 -2.4 Q-103.3 0.5 -101.2 5.6 -99.15 10.6 -99.15 15.95 -99.15 21.0 -101.2 25.9 -103.3 30.6 -107.3 33.45 -111.4 36.2 -115.85 36.2 -120.3 36.2 -124.3 33.45 -128.3 30.7 -130.4 25.9 -132.55 21.1 -132.55 15.9 -132.55 10.65 -130.4 5.5 -128.25 0.35 -124.2 -2.5 -120.2 -5.45 -115.85 -5.45 -111.5 -5.45 -107.4 -2.4 M-105.6 16.05 Q-105.6 11.75 -107.85 8.15 -110.9 3.35 -115.85 3.35 -120.2 3.35 -123.15 7.25 -126.1 11.0 -126.1 16.05 -126.1 20.2 -123.15 23.8 -120.15 27.35 -115.85 27.4 -111.55 27.35 -108.55 23.8 -105.6 20.2 -105.6 16.05" fill="#ff9900" fill-rule="evenodd" stroke="none"/>
    <path d="M101.35 -1.45 Q105.45 1.5 107.55 6.55 109.6 11.6 109.6 16.95 109.6 22.0 107.55 26.9 105.45 31.55 101.45 34.45 97.35 37.2 92.9 37.2 88.45 37.2 84.45 34.45 80.45 31.65 78.35 26.9 76.2 22.1 76.2 16.85 76.2 11.6 78.35 6.45 80.5 1.3 84.55 -1.55 88.55 -4.5 92.9 -4.45 97.25 -4.5 101.35 -1.45 M92.9 4.35 Q88.55 4.35 85.6 8.2 82.65 11.95 82.65 17.05 82.65 21.15 85.6 24.75 88.6 28.35 92.9 28.35 97.2 28.35 100.2 24.75 103.15 21.15 103.2 17.05 103.15 12.7 100.9 9.15 97.85 4.35 92.9 4.35" fill="#00ff00" fill-rule="evenodd" stroke="none"/>
    <path d="M121.55 -3.35 L121.55 -0.8 132.8 -0.7 Q135.1 -3.3 138.05 -3.55 147.3 -5.6 148.45 7.2 L148.45 27.0 Q151.05 26.7 152.05 29.85 152.9 32.6 151.2 33.95 147.2 37.15 142.0 35.8 L142.0 7.95 141.45 5.1 135.05 9.15 135.05 27.0 Q137.65 26.7 138.65 29.85 139.5 32.6 137.75 33.95 133.8 37.15 128.6 35.8 L128.6 7.95 128.05 5.2 127.0 4.45 121.55 9.15 121.55 27.0 Q124.2 26.7 125.1 29.85 126.25 33.95 123.25 35.25 118.6 36.7 113.5 35.05 112.75 35.05 112.35 34.35 109.35 28.15 115.1 27.0 L115.1 5.45 Q112.55 5.7 111.5 2.8 110.55 0.1 112.35 -1.55 116.5 -4.75 121.55 -3.35 M-95.25 -0.2 Q-97.8 0.05 -98.85 -2.9 -99.8 -5.55 -98.0 -7.2 -93.85 -10.45 -88.8 -9.05 L-88.8 -6.45 -77.55 -6.4 Q-75.25 -8.95 -72.3 -9.25 -63.05 -11.25 -61.9 1.55 L-61.9 21.3 Q-59.3 21.0 -58.3 24.15 -57.45 26.9 -59.15 28.3 -63.15 31.5 -68.35 30.15 L-68.35 2.25 -68.9 -0.6 -75.35 3.45 -75.35 21.3 Q-72.75 21.0 -71.7 24.15 -70.85 26.9 -72.6 28.3 -76.55 31.5 -81.75 30.15 L-81.75 2.25 -82.3 -0.5 -83.4 -1.25 -88.8 3.45 -88.8 21.3 Q-86.15 21.0 -85.25 24.15 -84.15 28.3 -87.15 29.6 -91.8 31.05 -96.85 29.4 -97.6 29.4 -98.0 28.65 -101.0 22.5 -95.25 21.3 L-95.25 -0.2" fill="#0000ff" fill-rule="evenodd" stroke="none"/>
    <path d="M31.95 34.0 L31.65 34.4 Q30.35 36.0 28.5 36.0 26.65 36.0 25.3 34.4 L25.0 34.0 Q24.0 32.5 24.0 30.5 24.0 28.2 25.3 26.6 26.65 25.0 28.5 25.0 30.35 25.0 31.65 26.6 33.0 28.2 33.0 30.5 33.0 32.5 31.95 34.0" fill="#3366ff" fill-rule="evenodd" stroke="none"/>
    <path d="M-161.3 -8.6 L-161.5 0.6 -165.2 3.65 -167.8 -17.5 -141.1 -17.4 -141.1 -8.75 -160.85 26.0 -146.2 26.0 -145.95 16.8 -141.65 13.85 -139.75 34.85 -169.1 34.85 -169.1 26.0 -149.45 -8.6 -161.3 -8.6" fill="#ff0000" fill-rule="evenodd" stroke="none"/>
    <path d="M-57.15 -13.85 L-57.05 -20.25 -46.75 -21.1 -46.75 -1.25 -44.3 -2.9 -43.1 -3.6 -40.65 -4.8 -38.25 -5.35 -36.15 -5.35 -32.2 -4.45 -30.85 -3.6 -28.2 -1.7 -27.0 -0.3 -25.1 1.8 -24.65 2.75 -23.1 6.3 -22.15 9.15 -21.6 12.0 -21.35 15.25 Q-21.3 16.8 -21.4 18.35 L-21.8 21.2 -22.5 23.8 -23.9 27.2 -25.7 30.25 -27.7 32.55 -28.6 33.35 -30.65 34.65 Q-32.2 35.35 -33.75 35.3 -36.7 36.1 -39.65 36.1 L-42.15 35.4 -44.5 34.3 -46.75 32.7 -57.3 33.15 -54.35 -12.25 -57.15 -13.85 M-37.05 2.9 Q-40.85 2.9 -43.55 6.6 -46.25 10.25 -46.25 15.4 -46.25 20.55 -43.55 24.25 -40.85 27.95 -37.05 27.95 -33.25 27.95 -30.55 24.25 -27.85 20.55 -27.85 15.4 -27.85 10.25 -30.55 6.6 -33.25 2.9 -37.05 2.9" fill="#9900ff" fill-rule="evenodd" stroke="none"/>
  </g>
  <defs>
    <linearGradient gradientTransform="matrix(0.0, -0.0231, 0.3393, 0.0, 0.0, -5.2)" gradientUnits="userSpaceOnUse" id="gradient0" spreadMethod="pad" x1="-819.2" x2="819.2">
      <stop offset="0.0" stop-color="#ffffff"/>
      <stop offset="1.0" stop-color="#3db871"/>
    </linearGradient>
  </defs>
</svg>
