<?xml version="1.0" encoding="UTF-8" standalone="no"?>
<svg width="100" height="100" xmlns="http://www.w3.org/2000/svg">
 <defs>
  <radialGradient spreadMethod="pad" r="819.2" id="gradient0" gradientUnits="userSpaceOnUse" gradientTransform="matrix(0.0365, 0.0179, -0.0179, 0.0365, 6.7, 12.2)" cy="0" cx="0">
   <stop stop-color="#ffffff" offset="0"/>
   <stop stop-color="#000000" offset="1"/>
  </radialGradient>
 </defs>
 <g>
  <title>background</title>
  <rect fill="none" id="canvas_background" height="402" width="582" y="-1" x="-1"/>
 </g>
 <g>
  <title>up</title>
  <g id="svg_1" transform="matrix(2.3959085941314697,0,0,2.3959085941314697,48.334897759502944,43.653491841814336) ">
   <path id="svg_2" fill-rule="evenodd" fill-opacity="0.690196" fill="#1a24e6" d="m3.184756,-13.095731l2.15,-1.25q2.45,-0.85 4.8,0.3q2.3,1.1 3.15,3.55l0.35,2.5l-0.65,2.3q-1.15,2.3 -3.6,3.15q-2.45,0.85 -4.75,-0.3l-1,-0.6q-1.5,-1.15 -2.15,-3q-0.85,-2.45 0.3,-4.75q0.5,-1.1 1.4,-1.9"/>
   <path id="svg_3" fill-rule="evenodd" fill-opacity="0.321569" fill="#00ff00" d="m-1.715244,-4.045731q-0.9,0.8 -2.1,1.2q-2.45,0.85 -4.75,-0.3q-2.35,-1.15 -3.15,-3.55q-0.85,-2.5 0.3,-4.8q1.1,-2.35 3.6,-3.15l4.75,0.25q2.3,1.15 3.15,3.6q0.85,2.45 -0.3,4.8q-0.55,1.15 -1.45,1.95l-0.05,0"/>
   <path id="svg_4" fill-rule="evenodd" fill-opacity="0.321569" fill="#f2fe01" d="m-17.815244,-0.295731q1.15,-2.35 3.6,-3.2q2.45,-0.85 4.75,0.3l0.7,0.4q1.75,1.1 2.5,3.2l0.35,1.55q0.1,1.65 -0.65,3.2q-1.1,2.2 -3.35,3.1l-0.25,0.1q-2.45,0.8 -4.75,-0.3q-2.35,-1.15 -3.2,-3.6q-0.85,-2.45 0.3,-4.75"/>
   <path id="svg_5" fill-rule="evenodd" fill="url(#gradient0)" d="m-5.415244,1.904269q0.05,-1.25 0.65,-2.4q1.05,-2.2 3.35,-3.05l0.25,-0.1q2.45,-0.85 4.75,0.3q2.35,1.1 3.2,3.6l0.35,2.25q-0.1,1.25 -0.7,2.5q-1.1,2.3 -3.55,3.2q-2.45,0.8 -4.8,-0.3l-0.65,-0.35q-1.8,-1.15 -2.5,-3.25q-0.45,-1.2 -0.35,-2.35l0,-0.05"/>
   <path id="svg_6" fill-rule="evenodd" fill-opacity="0.678431" fill="#e75303" d="m0.734756,13.854269q-0.05,1.15 -0.6,2.35q-1.15,2.3 -3.6,3.15q-2.45,0.85 -4.75,-0.3q-2.35,-1.15 -3.2,-3.6q-0.85,-2.45 0.3,-4.75q0.55,-1.15 1.45,-1.95l2.15,-1.2q2.45,-0.85 4.75,0.3q2.3,1.1 3.15,3.55q0.4,1.2 0.35,2.4l0,0.05"/>
   <path id="svg_7" fill-rule="evenodd" fill-opacity="0.678431" fill="#e90101" d="m1.734756,11.004269q1.15,-2.35 3.65,-3.15q2.4,-0.85 4.75,0.3l0.85,0.5q1.6,1.1 2.3,3.05q0.85,2.45 -0.3,4.8q-1.15,2.35 -3.6,3.2q-2.45,0.85 -4.75,-0.3q-2.35,-1.15 -3.15,-3.6q-0.4,-1.05 -0.4,-2.05q0,-1.4 0.65,-2.75"/>
   <path id="svg_8" fill-rule="evenodd" fill-opacity="0.321569" fill="#1b02fd" d="m7.584756,2.404269q0.05,-1.2 0.65,-2.35q1.1,-2.3 3.55,-3.15q2.45,-0.85 4.8,0.3q2.3,1.15 3.15,3.6q0.85,2.45 -0.25,4.75q-1.15,2.35 -3.6,3.2q-2.45,0.8 -4.75,-0.3q-2.35,-1.15 -3.2,-3.6q-0.45,-1.25 -0.35,-2.4l0,-0.05"/>
   <path id="svg_9" stroke-width="0.05" stroke-linejoin="round" stroke-linecap="round" stroke="#000000" fill="none" d="m-1.665244,-4.045731l-0.05,0m-3.7,6l0,-0.05m6.15,11.9l0,0.05m6.85,-11.4l0,-0.05"/>
  </g>
 </g>
</svg>