<?xml version="1.0" encoding="UTF-8" standalone="no"?>
<svg xmlns:xlink="http://www.w3.org/1999/xlink" height="35.1px" width="38.55px" xmlns="http://www.w3.org/2000/svg">
  <g transform="matrix(1, 0, 0, 1, 19.3, 17.55)">
    <path d="M2.35 -15.6 L4.5 -16.85 Q6.95 -17.7 9.3 -16.55 11.6 -15.45 12.45 -13.0 L12.8 -10.5 12.15 -8.2 Q11.0 -5.9 8.55 -5.05 6.1 -4.2 3.8 -5.35 L2.8 -5.95 Q1.3 -7.1 0.65 -8.95 -0.2 -11.4 0.95 -13.7 1.45 -14.8 2.35 -15.6" fill="#1a24e6" fill-opacity="0.6901961" fill-rule="evenodd" stroke="none"/>
    <path d="M-2.55 -6.55 Q-3.45 -5.75 -4.65 -5.35 -7.1 -4.5 -9.4 -5.65 -11.75 -6.8 -12.55 -9.2 -13.4 -11.7 -12.25 -14.0 -11.15 -16.35 -8.65 -17.15 L-3.9 -16.9 Q-1.6 -15.75 -0.75 -13.3 0.1 -10.85 -1.05 -8.5 -1.6 -7.35 -2.5 -6.55 L-2.55 -6.55" fill="#00ff00" fill-opacity="0.32156864" fill-rule="evenodd" stroke="none"/>
    <path d="M-18.65 -2.8 Q-17.5 -5.15 -15.05 -6.0 -12.6 -6.85 -10.3 -5.7 L-9.6 -5.3 Q-7.85 -4.2 -7.1 -2.1 L-6.75 -0.55 Q-6.65 1.1 -7.4 2.65 -8.5 4.85 -10.75 5.75 L-11.0 5.85 Q-13.45 6.65 -15.75 5.55 -18.1 4.4 -18.95 1.95 -19.8 -0.5 -18.65 -2.8" fill="#f2fe01" fill-opacity="0.32156864" fill-rule="evenodd" stroke="none"/>
    <path d="M-6.25 -0.6 Q-6.2 -1.85 -5.6 -3.0 -4.55 -5.2 -2.25 -6.05 L-2.0 -6.15 Q0.45 -7.0 2.75 -5.85 5.1 -4.75 5.95 -2.25 L6.3 0.0 Q6.2 1.25 5.6 2.5 4.5 4.8 2.05 5.7 -0.4 6.5 -2.75 5.4 L-3.4 5.05 Q-5.2 3.9 -5.9 1.8 -6.35 0.6 -6.25 -0.55 L-6.25 -0.6" fill="url(#gradient0)" fill-rule="evenodd" stroke="none"/>
    <path d="M-0.1 11.35 Q-0.15 12.5 -0.7 13.7 -1.85 16.0 -4.3 16.85 -6.75 17.7 -9.05 16.55 -11.4 15.4 -12.25 12.95 -13.1 10.5 -11.95 8.2 -11.4 7.05 -10.5 6.25 L-8.35 5.05 Q-5.9 4.2 -3.6 5.35 -1.3 6.45 -0.45 8.9 -0.05 10.1 -0.1 11.3 L-0.1 11.35" fill="#e75303" fill-opacity="0.6784314" fill-rule="evenodd" stroke="none"/>
    <path d="M0.9 8.5 Q2.05 6.15 4.55 5.35 6.95 4.5 9.3 5.65 L10.15 6.15 Q11.75 7.25 12.45 9.2 13.3 11.65 12.15 14.0 11.0 16.35 8.55 17.2 6.1 18.05 3.8 16.9 1.45 15.75 0.65 13.3 0.25 12.25 0.25 11.25 0.25 9.85 0.9 8.5" fill="#e90101" fill-opacity="0.6784314" fill-rule="evenodd" stroke="none"/>
    <path d="M6.75 -0.1 Q6.8 -1.3 7.4 -2.45 8.5 -4.75 10.95 -5.6 13.4 -6.45 15.75 -5.3 18.05 -4.15 18.9 -1.7 19.75 0.75 18.65 3.05 17.5 5.4 15.05 6.25 12.6 7.05 10.3 5.95 7.95 4.8 7.1 2.35 6.65 1.1 6.75 -0.05 L6.75 -0.1" fill="#1b02fd" fill-opacity="0.32156864" fill-rule="evenodd" stroke="none"/>
    <path d="M-2.5 -6.55 L-2.55 -6.55 M-6.25 -0.55 L-6.25 -0.6 M-0.1 11.3 L-0.1 11.35 M6.75 -0.05 L6.75 -0.1" fill="none" stroke="#000000" stroke-linecap="round" stroke-linejoin="round" stroke-width="0.05"/>
  </g>
  <defs>
    <radialGradient cx="0" cy="0" gradientTransform="matrix(0.0365, 0.0179, -0.0179, 0.0365, 6.7, 12.2)" gradientUnits="userSpaceOnUse" id="gradient0" r="819.2" spreadMethod="pad">
      <stop offset="0.0" stop-color="#ffffff"/>
      <stop offset="1.0" stop-color="#000000"/>
    </radialGradient>
  </defs>
</svg>
